<?xml version="1.0" encoding="UTF-8" standalone="no"?>
<svg width="196px" height="54px" viewBox="0 0 196 54" version="1.1" xmlns="http://www.w3.org/2000/svg" xmlns:xlink="http://www.w3.org/1999/xlink" xmlns:sketch="http://www.bohemiancoding.com/sketch/ns">
    <!-- Generator: Sketch 3.3.3 (12072) - http://www.bohemiancoding.com/sketch -->
    <title>logo</title>
    <desc>Created with Sketch.</desc>
    <defs></defs>
    <g id="Page-1" stroke="none" stroke-width="1" fill="none" fill-rule="evenodd" sketch:type="MSPage">
        <g id="frontpage" sketch:type="MSArtboardGroup" transform="translate(-688.000000, -88.000000)">
            <g id="logo" sketch:type="MSLayerGroup" transform="translate(690.000000, 90.000000)">
                <g id="symbol" sketch:type="MSShapeGroup">
                    <path d="M38.3633399,26.1891848 L36.0189344,23.0900543 L33.7715904,14.6391848 L32.6012542,10.41375 L27.8097822,6 L17.4503473,8.91081522 L14.8110246,17.4567391 L11.4904057,22.9035326 L10.9994992,30.6029348 L7.6788803,36.1429891 L6,40.8798828 L9.82729644,45.1570109 C9.82729644,45.1570109 19.9268766,50 25.7365536,50 C29.3418297,50 43,43.3470052 43,43.3470052 L40.2224385,40.0868478 L38.6582571,31.0728261 L38.3633399,26.1891848 Z M25.9544168,36.9877174 L24.4872968,38.1140217 L25.0733982,40.2285326 L22.4844727,38.7722283 L22.1428913,36.7527717 L25.0248675,33.888587 L28.2017608,36.0945652 L25.9544168,36.9877174 L25.9544168,36.9877174 Z M24.8792754,13.4805978 L25.3829265,21.2427715 L22.1428913,23.6227174 L17.1908948,30.3213587 L17.4503473,34.5772826 L17.9076557,35.8919022 L16.2781446,36.3940761 L14.9099525,39.8985326 L12.2388982,39.086087 L10.4805941,37.2065217 L9.76196667,35.6426087 L11.3280146,32.1991304 L13.2151116,34.7028261 L12.8249996,30.8827174 L13.4764307,24.3741848 L14.7158298,21.307337 L15.1712716,22.4318478 L16.9949055,19.5533152 L18.1689748,21.2427717 L17.6463366,13.92 L18.9491989,9.47396739 L27.4215367,6.78195652 L30.8728151,11.1652174 L27.2236809,10.3509783 L24.8792754,13.4805978 Z" id="Imported-Layers-Copy" fill="#047896"></path>
                    <circle id="Oval-20" stroke="#047896" stroke-width="2.77777778" cx="25" cy="25" r="25"></circle>
                </g>
                <path d="M68.556,37.748 C70.14,38.108 72.768,38.36 74.604,38.36 C80.256,38.36 84.252,35.912 84.252,31.088 C84.252,28.712 82.776,26.588 79.68,25.724 C81.336,24.824 82.848,23.168 82.848,20.936 C82.848,18.704 81.804,15.284 75.036,15.284 C72.732,15.284 69.312,15.716 68.448,15.932 C68.556,17.552 68.556,18.596 68.556,20.504 L68.556,37.748 Z M72.984,18.128 C73.344,18.056 74.208,17.984 74.784,17.984 C77.088,17.984 78.528,19.28 78.528,21.548 C78.528,23.384 77.736,24.608 76.8,25.04 C75.108,25.004 73.992,25.04 72.984,25.22 L72.984,18.128 Z M72.984,27.812 C73.524,27.704 74.1,27.704 74.64,27.704 C77.628,27.704 79.392,29.036 79.392,31.412 C79.392,34.22 77.52,35.696 74.856,35.696 C74.244,35.696 73.416,35.624 72.984,35.516 L72.984,27.812 Z M101.2,34.364 C100.588,34.652 98.896,35.192 97.168,35.192 C94.72,35.192 92.416,33.86 92.236,30.692 C94.216,30.764 97.96,30.728 98.86,30.512 C100.336,30.152 101.776,29.648 101.884,29.108 C101.956,28.82 101.992,28.424 101.992,27.92 C101.956,25.04 100.192,21.728 95.62,21.728 C90.76,21.728 87.916,25.904 87.916,30.26 C87.916,35.552 90.796,38.432 96.052,38.432 C97.312,38.432 98.86,38.036 99.4,37.784 C100.012,37.496 101.272,36.02 101.272,34.436 L101.2,34.364 Z M95.26,24.248 C97.096,24.248 97.924,25.688 97.888,27.452 C97.888,27.848 97.672,28.208 97.42,28.208 C96.556,28.28 93.784,28.316 92.308,28.208 C92.452,25.508 93.892,24.248 95.224,24.248 L95.26,24.248 Z M105.98,37.82 C105.98,38.18 106.124,38.288 106.484,38.288 C106.988,38.288 109.724,38.18 110.48,38 C110.408,36.956 110.336,35.012 110.336,33.248 L110.336,15.932 C110.336,13.772 110.192,13.592 109.652,13.592 C108.896,13.592 106.556,13.916 105.836,14.24 C105.908,14.96 105.98,15.932 105.98,18.056 L105.98,37.82 Z M129.264,35.264 C129.084,35.3 128.832,35.336 128.652,35.336 C127.788,35.336 127.356,34.832 127.356,34.364 C127.356,32.024 127.5,29.288 127.5,27.812 C127.5,23.888 124.872,21.728 121.632,21.728 C119.22,21.728 116.664,22.952 115.116,24.068 C115.116,25.148 115.62,26.444 117.132,26.012 C117.924,25.544 119.184,24.968 120.48,24.968 C122.28,24.968 123.324,26.192 123.324,27.704 L123.324,28.316 C122.892,28.424 122.1,28.532 121.452,28.676 C118.896,29.252 114.576,30.26 114.576,33.968 C114.576,36.632 116.7,38.432 119.076,38.432 C120.804,38.432 122.388,37.424 123.324,36.416 C123.792,37.676 124.764,38.432 126.24,38.432 C128.292,38.432 129.3,37.316 129.264,35.408 L129.264,35.264 Z M118.752,33.32 C118.752,32.132 120.12,30.98 123.252,30.62 L123.252,33.176 C123.252,33.824 123.144,34.184 122.964,34.4 C122.46,34.94 121.884,35.336 120.876,35.336 C119.724,35.336 118.752,34.616 118.752,33.356 L118.752,33.32 Z M132.424,44.012 C132.82,44.552 134.08,45.344 135.34,45.344 C136.168,45.344 139.012,41.132 141.316,36.344 C143.404,31.988 144.88,27.416 145.816,23.672 C146.032,22.808 145.924,22.34 145.06,22.124 C144.16,21.872 143.296,21.764 142.576,21.728 C142.108,24.284 140.56,29.54 139.264,32.816 C138.4,30.116 136.672,25.076 135.772,22.736 C135.52,22.16 135.34,21.728 134.692,21.728 C133.792,21.728 132.028,22.196 131.02,22.7 C132.388,25.58 135.52,33.86 136.204,35.588 C136.42,36.164 136.816,36.92 136.996,37.172 C135.664,39.692 133.504,42.68 132.424,43.868 L132.424,44.012 Z M168.092,16.4 C166.58,20.072 164.168,26.552 162.368,31.268 L157.508,17.84 C156.86,16.004 156.572,15.5 156.032,15.356 C154.304,15.356 153.008,15.68 152.108,15.86 L152.216,16.544 C150.812,24.752 149.372,34.076 148.724,37.892 C149.3,38.216 150.956,38.216 151.928,38.216 C152.324,38.216 152.504,38.036 152.576,37.64 C153.116,33.428 154.196,25.184 154.7,20.756 C156.32,25.652 159.488,35.192 160.352,38 C161.072,38 161.936,37.856 162.584,37.748 C163.376,37.568 163.628,37.28 163.88,36.56 C166.184,29.792 168.308,23.816 169.316,20.684 L170.36,29.72 C170.756,33.536 170.972,35.48 171.188,37.316 C171.26,38.036 171.728,38.216 172.196,38.216 C172.916,38.216 175.184,38.072 175.796,37.892 C175.472,36.164 175.076,33.5 174.5,29.72 L172.592,16.472 C172.484,15.572 172.268,15.356 171.908,15.356 C171.044,15.356 168.632,15.572 168.092,15.86 L168.092,16.4 Z M192.456,34.364 C191.844,34.652 190.152,35.192 188.424,35.192 C185.976,35.192 183.672,33.86 183.492,30.692 C185.472,30.764 189.216,30.728 190.116,30.512 C191.592,30.152 193.032,29.648 193.14,29.108 C193.212,28.82 193.248,28.424 193.248,27.92 C193.212,25.04 191.448,21.728 186.876,21.728 C182.016,21.728 179.172,25.904 179.172,30.26 C179.172,35.552 182.052,38.432 187.308,38.432 C188.568,38.432 190.116,38.036 190.656,37.784 C191.268,37.496 192.528,36.02 192.528,34.436 L192.456,34.364 Z M186.516,24.248 C188.352,24.248 189.18,25.688 189.144,27.452 C189.144,27.848 188.928,28.208 188.676,28.208 C187.812,28.28 185.04,28.316 183.564,28.208 C183.708,25.508 185.148,24.248 186.48,24.248 L186.516,24.248 Z" id="BelayMe" fill="#047896" sketch:type="MSShapeGroup"></path>
            </g>
        </g>
    </g>
</svg>