<?xml version="1.0" encoding="UTF-8" standalone="no"?>
<svg width="459px" height="65px" viewBox="0 0 459 65" version="1.1" xmlns="http://www.w3.org/2000/svg" xmlns:xlink="http://www.w3.org/1999/xlink" xmlns:sketch="http://www.bohemiancoding.com/sketch/ns">
    <!-- Generator: Sketch 3.3.3 (12072) - http://www.bohemiancoding.com/sketch -->
    <title>banner_title</title>
    <desc>Created with Sketch.</desc>
    <defs></defs>
    <g id="Page-1" stroke="none" stroke-width="1" fill="none" fill-rule="evenodd" sketch:type="MSPage">
        <g id="frontpage" sketch:type="MSArtboardGroup" transform="translate(-71.000000, -100.000000)">
            <g id="banner_title" sketch:type="MSLayerGroup" transform="translate(71.000000, 100.000000)">
                <path d="M8.2565552,34.9019608 L0.600510199,5.23529412 L27.9458498,5.23529412 L27.9458498,64.5686275 L0.600510199,64.5686275 L8.2565552,34.9019608 Z" id="Rectangle-221" fill="#056B85" sketch:type="MSShapeGroup"></path>
                <path d="M438.450894,34.9019608 L430.694022,5.23529412 L458.39949,5.23529412 L458.39949,64.5686275 L430.694022,64.5686275 L438.450894,34.9019608 Z" id="Rectangle-221-Copy" fill="#056B85" sketch:type="MSShapeGroup" transform="translate(444.546756, 34.901961) scale(-1, 1) translate(-444.546756, -34.901961) "></path>
                <path d="M28.2281294,51.4803922 L14.6157774,51.4803922 L28.2281298,64.478305 L28.2281294,51.4803922 Z" id="Triangle-1" fill="#065D73" sketch:type="MSShapeGroup"></path>
                <path d="M443.833334,51.4803922 L430.694022,51.4803922 L443.833335,64.478305 L443.833334,51.4803922 Z" id="Triangle-1-Copy" fill="#055D73" sketch:type="MSShapeGroup" transform="translate(437.263678, 57.979349) scale(-1, 1) translate(-437.263678, -57.979349) "></path>
                <rect id="Rectangle-220" fill="#047896" sketch:type="MSShapeGroup" x="14.6157774" y="0" width="429.217557" height="51.4803922"></rect>
                <path d="M52.424,33.99 C52.424,34.438 52.62,34.522 53.04,34.522 C54.132,34.522 55.532,34.438 56.008,34.298 C55.952,32.198 55.924,29.874 55.924,27.074 L60.208,27.074 C61.3,27.074 61.972,26.878 62.252,24.75 L55.924,24.75 L55.924,19.178 L59.676,19.178 C60.908,19.178 61.496,19.178 61.86,19.01 C62.224,18.646 62.616,18.114 62.84,16.854 C61.496,16.854 56.736,16.826 55.728,16.854 C54.496,16.91 52.844,17.134 52.34,17.274 C52.396,18.254 52.424,19.01 52.424,20.242 L52.424,33.99 Z M67.254,15.818 C66.554,15.818 65.406,16.35 65.406,17.722 C65.406,19.01 66.302,19.542 67.17,19.542 C68.234,19.542 68.99,18.702 68.99,17.638 C68.99,16.602 68.346,15.818 67.282,15.818 L67.254,15.818 Z M68.906,23.63 C68.906,22.006 68.794,21.866 68.402,21.866 C67.814,21.866 66.05,22.006 65.406,22.202 C65.462,22.762 65.518,23.63 65.518,25.338 L65.518,30.126 C65.518,31.75 65.462,33.374 65.434,34.522 C66.526,34.522 67.534,34.494 68.094,34.41 C68.71,34.326 68.906,34.186 68.906,33.682 L68.906,23.63 Z M81.132,33.99 C81.132,34.354 81.272,34.522 81.692,34.522 C82.868,34.522 83.988,34.354 84.632,34.298 C84.548,33.346 84.52,31.806 84.52,30.35 L84.52,26.822 C84.52,24.638 83.904,21.698 80.348,21.698 C78.948,21.698 77.604,22.566 76.456,23.574 C76.288,22.706 75.868,21.698 74.804,21.698 C73.936,21.698 72.984,22.426 72.704,23.126 L72.704,23.322 C73.124,23.574 73.236,23.994 73.236,24.834 L73.236,29.426 C73.236,31.33 73.208,33.038 73.152,34.522 C74.16,34.522 75.028,34.494 75.98,34.354 C76.54,34.298 76.624,34.158 76.624,33.654 L76.624,25.282 C77.24,24.75 77.94,24.246 79.032,24.246 C80.264,24.246 81.132,25.17 81.132,26.794 L81.132,33.99 Z M96.55,21.978 C96.298,21.838 95.626,21.698 94.87,21.698 C90.894,21.698 87.814,24.47 87.814,28.586 C87.814,32.282 90.054,34.69 93.33,34.69 C94.394,34.69 95.906,33.99 96.942,33.178 C97.222,33.99 97.838,34.69 99.378,34.69 C100.162,34.69 100.946,33.654 101.086,32.842 L101.086,32.758 C100.302,32.59 99.938,32.31 99.938,31.218 L99.938,17.218 C99.938,15.51 99.826,15.37 99.406,15.37 C98.846,15.37 96.998,15.65 96.41,15.874 C96.494,16.462 96.55,17.162 96.55,18.786 L96.55,21.978 Z M96.55,31.638 C96.074,31.946 95.346,32.142 94.786,32.142 C92.938,32.142 91.37,30.742 91.37,28.11 C91.37,25.002 93.302,23.77 94.982,23.77 C95.682,23.77 96.27,23.938 96.55,24.078 L96.55,31.638 Z M121.198,32.226 C121.058,32.254 120.862,32.282 120.722,32.282 C120.05,32.282 119.714,31.89 119.714,31.526 C119.714,29.706 119.826,27.578 119.826,26.43 C119.826,23.378 117.782,21.698 115.262,21.698 C113.386,21.698 111.398,22.65 110.194,23.518 C110.194,24.358 110.586,25.366 111.762,25.03 C112.378,24.666 113.358,24.218 114.366,24.218 C115.766,24.218 116.578,25.17 116.578,26.346 L116.578,26.822 C116.242,26.906 115.626,26.99 115.122,27.102 C113.134,27.55 109.774,28.334 109.774,31.218 C109.774,33.29 111.426,34.69 113.274,34.69 C114.618,34.69 115.85,33.906 116.578,33.122 C116.942,34.102 117.698,34.69 118.846,34.69 C120.442,34.69 121.226,33.822 121.198,32.338 L121.198,32.226 Z M113.022,30.714 C113.022,29.79 114.086,28.894 116.522,28.614 L116.522,30.602 C116.522,31.106 116.438,31.386 116.298,31.554 C115.906,31.974 115.458,32.282 114.674,32.282 C113.778,32.282 113.022,31.722 113.022,30.742 L113.022,30.714 Z M136.41,15.202 C135.346,15.202 134.114,15.426 132.938,16.49 C131.79,17.582 130.978,19.178 130.978,22.034 C130.278,22.454 129.83,22.622 129.354,23.182 C129.354,23.798 129.886,24.106 130.978,24.19 C130.978,27.634 131.006,31.022 130.922,34.046 C130.922,34.466 131.09,34.522 131.37,34.522 C131.762,34.522 133.582,34.438 134.478,34.298 C134.478,32.758 134.366,26.542 134.366,24.19 C135.598,24.19 136.578,24.078 136.942,23.798 C137.306,23.546 137.726,22.902 137.81,21.978 C137.138,22.062 134.842,22.034 134.45,22.034 C134.366,18.87 135.066,17.582 136.438,17.582 C136.662,17.582 136.97,17.638 137.194,17.722 C137.95,17.778 138.538,16.546 138.37,15.846 C137.978,15.454 137.222,15.202 136.438,15.202 L136.41,15.202 Z M139.2,23.266 C139.676,23.546 139.844,24.05 139.844,24.694 L139.844,29.426 C139.844,31.33 139.816,33.038 139.76,34.522 C140.768,34.522 141.636,34.494 142.616,34.382 C143.176,34.27 143.232,34.046 143.232,33.598 L143.232,27.746 C143.232,27.13 143.316,26.822 143.484,26.374 C143.932,25.198 144.744,24.862 145.192,24.862 C145.668,24.862 145.976,24.918 146.536,25.142 C146.956,25.086 147.516,24.414 147.628,23.826 C147.908,23.294 147.936,22.482 147.796,22.174 C147.544,21.95 147.012,21.698 146.48,21.698 C144.996,21.698 143.82,22.706 143.008,24.61 C142.98,22.874 142.476,21.698 141.244,21.698 C140.488,21.698 139.424,22.51 139.2,23.154 L139.2,23.266 Z M152.238,15.818 C151.538,15.818 150.39,16.35 150.39,17.722 C150.39,19.01 151.286,19.542 152.154,19.542 C153.218,19.542 153.974,18.702 153.974,17.638 C153.974,16.602 153.33,15.818 152.266,15.818 L152.238,15.818 Z M153.89,23.63 C153.89,22.006 153.778,21.866 153.386,21.866 C152.798,21.866 151.034,22.006 150.39,22.202 C150.446,22.762 150.502,23.63 150.502,25.338 L150.502,30.126 C150.502,31.75 150.446,33.374 150.418,34.522 C151.51,34.522 152.518,34.494 153.078,34.41 C153.694,34.326 153.89,34.186 153.89,33.682 L153.89,23.63 Z M167.516,31.526 C167.04,31.75 165.724,32.17 164.38,32.17 C162.476,32.17 160.684,31.134 160.544,28.67 C162.084,28.726 164.996,28.698 165.696,28.53 C166.844,28.25 167.964,27.858 168.048,27.438 C168.104,27.214 168.132,26.906 168.132,26.514 C168.104,24.274 166.732,21.698 163.176,21.698 C159.396,21.698 157.184,24.946 157.184,28.334 C157.184,32.45 159.424,34.69 163.512,34.69 C164.492,34.69 165.696,34.382 166.116,34.186 C166.592,33.962 167.572,32.814 167.572,31.582 L167.516,31.526 Z M162.896,23.658 C164.324,23.658 164.968,24.778 164.94,26.15 C164.94,26.458 164.772,26.738 164.576,26.738 C163.904,26.794 161.748,26.822 160.6,26.738 C160.712,24.638 161.832,23.658 162.868,23.658 L162.896,23.658 Z M179.182,33.99 C179.182,34.354 179.322,34.522 179.742,34.522 C180.918,34.522 182.038,34.354 182.682,34.298 C182.598,33.346 182.57,31.806 182.57,30.35 L182.57,26.822 C182.57,24.638 181.954,21.698 178.398,21.698 C176.998,21.698 175.654,22.566 174.506,23.574 C174.338,22.706 173.918,21.698 172.854,21.698 C171.986,21.698 171.034,22.426 170.754,23.126 L170.754,23.322 C171.174,23.574 171.286,23.994 171.286,24.834 L171.286,29.426 C171.286,31.33 171.258,33.038 171.202,34.522 C172.21,34.522 173.078,34.494 174.03,34.354 C174.59,34.298 174.674,34.158 174.674,33.654 L174.674,25.282 C175.29,24.75 175.99,24.246 177.082,24.246 C178.314,24.246 179.182,25.17 179.182,26.794 L179.182,33.99 Z M194.6,21.978 C194.348,21.838 193.676,21.698 192.92,21.698 C188.944,21.698 185.864,24.47 185.864,28.586 C185.864,32.282 188.104,34.69 191.38,34.69 C192.444,34.69 193.956,33.99 194.992,33.178 C195.272,33.99 195.888,34.69 197.428,34.69 C198.212,34.69 198.996,33.654 199.136,32.842 L199.136,32.758 C198.352,32.59 197.988,32.31 197.988,31.218 L197.988,17.218 C197.988,15.51 197.876,15.37 197.456,15.37 C196.896,15.37 195.048,15.65 194.46,15.874 C194.544,16.462 194.6,17.162 194.6,18.786 L194.6,21.978 Z M194.6,31.638 C194.124,31.946 193.396,32.142 192.836,32.142 C190.988,32.142 189.42,30.742 189.42,28.11 C189.42,25.002 191.352,23.77 193.032,23.77 C193.732,23.77 194.32,23.938 194.6,24.078 L194.6,31.638 Z M216.252,31.778 C215.916,32.002 215.132,32.282 214.292,32.282 C213.34,32.282 212.584,31.778 212.444,30.406 C212.332,29.23 212.304,26.514 212.416,24.218 C213.592,24.218 214.488,24.162 215.132,24.106 C215.692,24.05 216.308,23.966 216.644,22.034 L212.5,22.034 C212.5,21.25 212.556,20.242 212.668,19.402 C211.576,19.514 211.044,19.85 210.568,20.242 C210.092,20.634 207.824,22.65 207.432,23.462 C207.432,23.742 207.964,24.246 209,24.246 L209,30.938 C209,32.87 209.924,34.69 212.78,34.69 C214.012,34.69 215.188,34.382 215.86,33.794 C216.364,33.374 216.476,32.506 216.336,31.834 L216.252,31.778 Z M224.698,21.698 C220.946,21.698 218.23,24.498 218.23,28.306 C218.23,32.282 220.806,34.69 224.418,34.69 C228.338,34.69 230.886,31.946 230.886,28.026 C230.886,24.554 228.758,21.698 224.726,21.698 L224.698,21.698 Z M224.446,23.77 C226.49,23.77 227.33,25.954 227.33,28.334 C227.33,30.91 226.462,32.618 224.726,32.618 C223.13,32.618 221.786,31.134 221.786,27.942 C221.786,25.534 222.71,23.77 224.418,23.77 L224.446,23.77 Z M244.054,17.218 C244.054,15.51 243.942,15.37 243.55,15.37 C242.934,15.37 241.142,15.65 240.554,15.874 C240.61,16.462 240.666,17.218 240.666,18.898 L240.666,29.454 C240.666,31.358 240.638,33.038 240.582,34.522 C241.59,34.522 242.458,34.494 243.41,34.382 C243.97,34.27 244.054,34.102 244.054,33.598 L244.054,25.198 C244.67,24.694 245.51,24.246 246.406,24.246 C247.694,24.246 248.562,25.17 248.562,26.822 L248.562,33.934 C248.562,34.354 248.702,34.522 249.122,34.522 C250.298,34.522 251.418,34.382 252.034,34.298 C251.978,33.346 251.95,31.834 251.95,30.406 L251.95,26.682 C251.95,23.714 250.578,21.698 247.946,21.698 C246.378,21.698 245.174,22.426 244.054,23.35 L244.054,17.218 Z M265.548,31.526 C265.072,31.75 263.756,32.17 262.412,32.17 C260.508,32.17 258.716,31.134 258.576,28.67 C260.116,28.726 263.028,28.698 263.728,28.53 C264.876,28.25 265.996,27.858 266.08,27.438 C266.136,27.214 266.164,26.906 266.164,26.514 C266.136,24.274 264.764,21.698 261.208,21.698 C257.428,21.698 255.216,24.946 255.216,28.334 C255.216,32.45 257.456,34.69 261.544,34.69 C262.524,34.69 263.728,34.382 264.148,34.186 C264.624,33.962 265.604,32.814 265.604,31.582 L265.548,31.526 Z M260.928,23.658 C262.356,23.658 263,24.778 262.972,26.15 C262.972,26.458 262.804,26.738 262.608,26.738 C261.936,26.794 259.78,26.822 258.632,26.738 C258.744,24.638 259.864,23.658 260.9,23.658 L260.928,23.658 Z M269.178,34.214 C269.178,34.494 269.29,34.578 269.57,34.578 C269.962,34.578 272.09,34.494 272.678,34.354 C272.622,33.542 272.566,32.03 272.566,30.658 L272.566,17.19 C272.566,15.51 272.454,15.37 272.034,15.37 C271.446,15.37 269.626,15.622 269.066,15.874 C269.122,16.434 269.178,17.19 269.178,18.842 L269.178,34.214 Z M280.34,34.214 C280.816,34.494 281.544,34.69 282.328,34.69 C285.94,34.69 289.076,31.918 289.076,27.606 C289.076,24.078 286.976,21.698 284.064,21.698 C282.832,21.698 281.656,22.286 280.116,23.35 C279.948,22.566 279.528,21.698 278.548,21.698 C277.596,21.698 276.756,22.398 276.42,23.126 L276.42,23.322 C276.812,23.462 276.952,23.994 276.952,24.722 L276.952,35.726 C276.952,37.63 276.924,39.198 276.868,40.29 C277.904,40.29 278.744,40.262 279.696,40.15 C280.284,40.038 280.34,39.87 280.34,39.394 L280.34,34.214 Z M280.34,25.114 C280.816,24.778 281.712,24.33 282.636,24.33 C284.372,24.33 285.52,25.926 285.52,28.082 C285.52,31.19 283.7,32.506 281.936,32.506 C281.404,32.506 280.732,32.366 280.34,32.198 L280.34,25.114 Z M298.632,39.03 C298.94,39.45 299.92,40.066 300.9,40.066 C301.544,40.066 303.756,36.79 305.548,33.066 C307.172,29.678 308.32,26.122 309.048,23.21 C309.216,22.538 309.132,22.174 308.46,22.006 C307.76,21.81 307.088,21.726 306.528,21.698 C306.164,23.686 304.96,27.774 303.952,30.322 C303.28,28.222 301.936,24.302 301.236,22.482 C301.04,22.034 300.9,21.698 300.396,21.698 C299.696,21.698 298.324,22.062 297.54,22.454 C298.604,24.694 301.04,31.134 301.572,32.478 C301.74,32.926 302.048,33.514 302.188,33.71 C301.152,35.67 299.472,37.994 298.632,38.918 L298.632,39.03 Z M317.466,21.698 C313.714,21.698 310.998,24.498 310.998,28.306 C310.998,32.282 313.574,34.69 317.186,34.69 C321.106,34.69 323.654,31.946 323.654,28.026 C323.654,24.554 321.526,21.698 317.494,21.698 L317.466,21.698 Z M317.214,23.77 C319.258,23.77 320.098,25.954 320.098,28.334 C320.098,30.91 319.23,32.618 317.494,32.618 C315.898,32.618 314.554,31.134 314.554,27.942 C314.554,25.534 315.478,23.77 317.186,23.77 L317.214,23.77 Z M326.892,29.958 C326.892,32.702 328.152,34.69 331.148,34.69 C331.82,34.69 332.38,34.522 332.94,34.298 C333.5,34.018 334.34,33.57 335.068,32.898 C335.376,33.962 335.992,34.69 337.504,34.69 C338.232,34.69 339.072,33.738 339.184,32.898 L339.184,32.73 C338.428,32.59 338.064,32.31 338.064,31.19 L338.064,26.906 C338.064,24.47 338.148,22.454 338.148,21.866 C337.196,21.866 336.496,21.922 335.264,22.062 C334.76,22.174 334.676,22.342 334.676,23.154 L334.676,31.218 C334.228,31.638 333.5,32.086 332.576,32.086 C331.568,32.086 330.28,31.666 330.28,29.51 L330.28,23.63 C330.28,22.006 330.168,21.866 329.748,21.866 C329.02,21.866 327.396,22.034 326.78,22.202 C326.836,22.762 326.892,23.602 326.892,25.338 L326.892,29.958 Z M352.828,21.698 C350.42,21.698 348.264,23.126 348.264,25.618 C348.264,27.102 349.076,28.166 350.224,28.81 C350.924,29.202 351.652,29.538 352.352,29.93 C353.164,30.35 353.444,30.714 353.444,31.218 C353.444,31.918 352.856,32.394 351.848,32.394 C350.728,32.394 349.524,31.89 348.712,31.386 C348.32,31.694 348.012,32.31 347.984,32.898 C347.984,33.318 348.236,33.654 348.6,33.906 C349.356,34.382 350.532,34.69 351.624,34.69 C354.172,34.69 356.636,33.346 356.636,30.574 C356.636,29.342 356.076,28.278 354.676,27.494 C354.032,27.158 352.912,26.654 352.38,26.346 C351.792,26.01 351.344,25.674 351.344,25.086 C351.344,24.414 351.932,23.966 352.772,23.966 C353.444,23.966 354.144,24.162 354.704,24.414 C355.684,24.498 356.02,23.406 355.992,22.678 C355.068,21.978 353.976,21.698 352.856,21.698 L352.828,21.698 Z M369.394,31.526 C368.918,31.75 367.602,32.17 366.258,32.17 C364.354,32.17 362.562,31.134 362.422,28.67 C363.962,28.726 366.874,28.698 367.574,28.53 C368.722,28.25 369.842,27.858 369.926,27.438 C369.982,27.214 370.01,26.906 370.01,26.514 C369.982,24.274 368.61,21.698 365.054,21.698 C361.274,21.698 359.062,24.946 359.062,28.334 C359.062,32.45 361.302,34.69 365.39,34.69 C366.37,34.69 367.574,34.382 367.994,34.186 C368.47,33.962 369.45,32.814 369.45,31.582 L369.394,31.526 Z M364.774,23.658 C366.202,23.658 366.846,24.778 366.818,26.15 C366.818,26.458 366.65,26.738 366.454,26.738 C365.782,26.794 363.626,26.822 362.478,26.738 C362.59,24.638 363.71,23.658 364.746,23.658 L364.774,23.658 Z M381.06,33.99 C381.06,34.354 381.2,34.522 381.62,34.522 C382.796,34.522 383.916,34.354 384.56,34.298 C384.476,33.346 384.448,31.806 384.448,30.35 L384.448,26.822 C384.448,24.638 383.832,21.698 380.276,21.698 C378.876,21.698 377.532,22.566 376.384,23.574 C376.216,22.706 375.796,21.698 374.732,21.698 C373.864,21.698 372.912,22.426 372.632,23.126 L372.632,23.322 C373.052,23.574 373.164,23.994 373.164,24.834 L373.164,29.426 C373.164,31.33 373.136,33.038 373.08,34.522 C374.088,34.522 374.956,34.494 375.908,34.354 C376.468,34.298 376.552,34.158 376.552,33.654 L376.552,25.282 C377.168,24.75 377.868,24.246 378.96,24.246 C380.192,24.246 381.06,25.17 381.06,26.794 L381.06,33.99 Z M396.478,21.978 C396.226,21.838 395.554,21.698 394.798,21.698 C390.822,21.698 387.742,24.47 387.742,28.586 C387.742,32.282 389.982,34.69 393.258,34.69 C394.322,34.69 395.834,33.99 396.87,33.178 C397.15,33.99 397.766,34.69 399.306,34.69 C400.09,34.69 400.874,33.654 401.014,32.842 L401.014,32.758 C400.23,32.59 399.866,32.31 399.866,31.218 L399.866,17.218 C399.866,15.51 399.754,15.37 399.334,15.37 C398.774,15.37 396.926,15.65 396.338,15.874 C396.422,16.462 396.478,17.162 396.478,18.786 L396.478,21.978 Z M396.478,31.638 C396.002,31.946 395.274,32.142 394.714,32.142 C392.866,32.142 391.298,30.742 391.298,28.11 C391.298,25.002 393.23,23.77 394.91,23.77 C395.61,23.77 396.198,23.938 396.478,24.078 L396.478,31.638 Z M406.912,17.358 C406.016,17.358 403.888,17.778 403.776,18.086 C403.804,19.85 404.504,27.438 404.644,28.614 C404.812,28.614 405.372,28.474 406.044,28.306 C406.296,28.222 406.604,28.11 406.688,27.606 C406.856,26.43 407.528,19.766 407.528,18.114 C407.528,17.414 407.36,17.358 406.94,17.358 L406.912,17.358 Z M405.596,30.658 C404.196,30.658 403.496,31.582 403.496,32.702 C403.496,34.046 404.504,34.662 405.4,34.662 C406.66,34.662 407.444,33.85 407.444,32.618 C407.444,31.554 406.716,30.658 405.624,30.658 L405.596,30.658 Z" id="Find-a-friend-to-hel-Copy" fill-opacity="0.9" fill="#FFFFFF" sketch:type="MSShapeGroup"></path>
            </g>
        </g>
    </g>
</svg>